Coordinates
version=1
nRows=22
nColumns=24
inDegrees=yes

Units are S.I. units (second, meters, Newtons, ...)
Angles are in degrees.

endheader
time	pelvis_tilt	pelvis_list	pelvis_rotation	pelvis_tx	pelvis_ty	pelvis_tz	hip_flexion_r	hip_adduction_r	hip_rotation_r	knee_angle_r	ankle_angle_r	subtalar_angle_r	mtp_angle_r	hip_flexion_l	hip_adduction_l	hip_rotation_l	knee_angle_l	ankle_angle_l	subtalar_angle_l	mtp_angle_l	lumbar_extension	lumbar_bending	lumbar_rotation
      9.60000000	     53.52262165	      4.62505964	     -4.31896214	      1.28662156	      1.04374528	     -0.28861037	     23.32200667	     -9.58404386	      6.05991316	    -64.22577664	    -24.00841521	      0.00000000	      0.00000000	     17.51918533	    -10.90752591	     -5.74173315	    -62.93970167	    -14.57690598	      0.00000000	      0.00000000	      0.00000000	      0.00000000	      0.00000000
      9.61000000	     53.53313838	      4.61852015	     -4.31691911	      1.28661626	      1.04376585	     -0.28859816	     23.29139712	     -9.54925346	      6.01651536	    -63.97498028	    -23.98853369	      0.00000000	      0.00000000	     17.50541059	    -10.91621676	     -5.74185659	    -62.93224094	    -14.58458812	      0.00000000	      0.00000000	      0.00000000	      0.00000000	      0.00000000
      9.62000000	     53.54437083	      4.61242733	     -4.31458608	      1.28660869	      1.04378205	     -0.28858532	     23.26095267	     -9.51605667	      5.97480017	    -63.73729386	    -23.96028134	      0.00000000	      0.00000000	     17.49121564	    -10.92404185	     -5.74213687	    -62.92424865	    -14.59104051	      0.00000000	      0.00000000	      0.00000000	      0.00000000	      0.00000000
      9.63000000	     53.55645341	      4.60691269	     -4.31274252	      1.28659176	      1.04379145	     -0.28857344	     23.23213452	     -9.48505284	      5.93560667	    -63.51480652	    -23.92382013	      0.00000000	      0.00000000	     17.47728443	    -10.93005934	     -5.74249309	    -62.91653001	    -14.59599167	      0.00000000	      0.00000000	      0.00000000	      0.00000000	      0.00000000
      9.64000000	     53.56874199	      4.60229007	     -4.31158601	      1.28656350	      1.04379806	     -0.28856179	     23.20631428	     -9.45700516	      5.90010941	    -63.30939292	    -23.88045773	      0.00000000	      0.00000000	     17.46435991	    -10.93376624	     -5.74283051	    -62.90991163	    -14.59954614	      0.00000000	      0.00000000	      0.00000000	      0.00000000	      0.00000000
      9.65000000	     53.58013888	      4.59903798	     -4.31071166	      1.28653190	      1.04380266	     -0.28855196	     23.18462687	     -9.43269001	      5.86931732	    -63.12224785	    -23.83223186	      0.00000000	      0.00000000	     17.45313844	    -10.93517753	     -5.74303429	    -62.90502770	    -14.60199660	      0.00000000	      0.00000000	      0.00000000	      0.00000000	      0.00000000
      9.66000000	     53.58957999	      4.59755582	     -4.30939509	      1.28651072	      1.04380389	     -0.28854628	     23.16782533	     -9.41259366	      5.84358895	    -62.95373800	    -23.78155504	      0.00000000	      0.00000000	     17.44416224	    -10.93469708	     -5.74300451	    -62.90214751	    -14.60365840	      0.00000000	      0.00000000	      0.00000000	      0.00000000	      0.00000000
      9.67000000	     53.59623443	      4.59777503	     -4.30713634	      1.28650816	      1.04380466	     -0.28854418	     23.15593149	     -9.39660791	      5.82245288	    -62.80372637	    -23.73102145	      0.00000000	      0.00000000	     17.43778616	    -10.93288528	     -5.74269405	    -62.90108859	    -14.60476648	      0.00000000	      0.00000000	      0.00000000	      0.00000000	      0.00000000
      9.68000000	     53.59957818	      4.59896598	     -4.30412391	      1.28652065	      1.04381033	     -0.28854330	     23.14807701	     -9.38400172	      5.80486798	    -62.67200363	    -23.68325581	      0.00000000	      0.00000000	     17.43415323	    -10.93035868	     -5.74210002	    -62.90126616	    -14.60545073	      0.00000000	      0.00000000	      0.00000000	      0.00000000	      0.00000000
      9.69000000	     53.59966963	      4.60003904	     -4.30117089	      1.28653691	      1.04382126	     -0.28854293	     23.14296460	     -9.37365579	      5.78973884	    -62.55840525	    -23.64065666	      0.00000000	      0.00000000	     17.43308057	    -10.92782424	     -5.74123976	    -62.90193251	    -14.60577624	      0.00000000	      0.00000000	      0.00000000	      0.00000000	      0.00000000
      9.70000000	     53.59744353	      4.60010791	     -4.29917199	      1.28654474	      1.04383087	     -0.28854496	     23.13961209	     -9.36439691	      5.77638326	    -62.46269552	    -23.60504563	      0.00000000	      0.00000000	     17.43395293	    -10.92606638	     -5.74015623	    -62.90250752	    -14.60580698	      0.00000000	      0.00000000	      0.00000000	      0.00000000	      0.00000000
      9.71000000	     53.59457054	      4.59878138	     -4.29851672	      1.28653846	      1.04383281	     -0.28854974	     23.13763981	     -9.35537983	      5.76478224	    -62.38462366	    -23.57738239	      0.00000000	      0.00000000	     17.43581906	    -10.92577423	     -5.73896512	    -62.90278873	    -14.60564776	      0.00000000	      0.00000000	      0.00000000	      0.00000000	      0.00000000
      9.72000000	     53.59269607	      4.59611214	     -4.29890488	      1.28652506	      1.04382784	     -0.28855209	     23.13677472	     -9.34636163	      5.75550708	    -62.32430650	    -23.55773381	      0.00000000	      0.00000000	     17.43768750	    -10.92729395	     -5.73788289	    -62.90292872	    -14.60544157	      0.00000000	      0.00000000	      0.00000000	      0.00000000	      0.00000000
      9.73000000	     53.59256951	      4.59246567	     -4.29966982	      1.28651547	      1.04382242	     -0.28854673	     23.13618453	     -9.33770551	      5.74934969	    -62.28252948	    -23.54552723	      0.00000000	      0.00000000	     17.43877113	    -10.93053085	     -5.73714460	    -62.90325318	    -14.60532771	      0.00000000	      0.00000000	      0.00000000	      0.00000000	      0.00000000
      9.74000000	     53.59390825	      4.58836670	     -4.30022881	      1.28651127	      1.04382153	     -0.28853599	     23.13451958	     -9.33019171	      5.74687868	    -62.26045521	    -23.53991138	      0.00000000	      0.00000000	     17.43853989	    -10.93502214	     -5.73685231	    -62.90405367	    -14.60538684	      0.00000000	      0.00000000	      0.00000000	      0.00000000	      0.00000000
      9.75000000	     53.59615644	      4.58429060	     -4.30026409	      1.28650862	      1.04382495	     -0.28852677	     23.13067993	     -9.32480810	      5.74814725	    -62.25882540	    -23.54002381	      0.00000000	      0.00000000	     17.43670993	    -10.94003920	     -5.73687777	    -62.90542730	    -14.60560712	      0.00000000	      0.00000000	      0.00000000	      0.00000000	      0.00000000
      9.76000000	     53.59929781	      4.58057705	     -4.29963490	      1.28650754	      1.04382978	     -0.28852305	     23.12455213	     -9.32256997	      5.75262019	    -62.27729328	    -23.54509374	      0.00000000	      0.00000000	     17.43320041	    -10.94470712	     -5.73688042	    -62.90724066	    -14.60588887	      0.00000000	      0.00000000	      0.00000000	      0.00000000	      0.00000000
      9.77000000	     53.60393837	      4.57756972	     -4.29826118	      1.28650818	      1.04383341	     -0.28852433	     23.11708338	     -9.32438892	      5.75928644	    -62.31445485	    -23.55442564	      0.00000000	      0.00000000	     17.42804752	    -10.94815874	     -5.73644227	    -62.90923656	    -14.60607146	      0.00000000	      0.00000000	      0.00000000	      0.00000000	      0.00000000
      9.78000000	     53.61071003	      4.57577493	     -4.29614085	      1.28650469	      1.04383529	     -0.28852817	     23.10966070	     -9.33103401	      5.76691158	    -62.36859147	    -23.56734112	      0.00000000	      0.00000000	     17.42140890	    -10.94965731	     -5.73526806	    -62.91116651	    -14.60596039	      0.00000000	      0.00000000	      0.00000000	      0.00000000	      0.00000000
      9.79000000	     53.61949304	      4.57581481	     -4.29344429	      1.28649178	      1.04383691	     -0.28853249	     23.10326815	     -9.34310461	      5.77438169	    -62.43856010	    -23.58315182	      0.00000000	      0.00000000	     17.41364781	    -10.94866159	     -5.73334780	    -62.91287017	    -14.60535800	      0.00000000	      0.00000000	      0.00000000	      0.00000000	      0.00000000
      9.80000000	     53.62912487	      4.57809833	     -4.29056668	      1.28647491	      1.04383843	     -0.28853670	     23.09810463	     -9.36087661	      5.78109024	    -62.52411440	    -23.60121460	      0.00000000	      0.00000000	     17.40538679	    -10.94487682	     -5.73099570	    -62.91429993	    -14.60410725	      0.00000000	      0.00000000	      0.00000000	      0.00000000	      0.00000000
      9.81000000	     53.63795545	      4.58245668	     -4.28804074	      1.28646554	      1.04383822	     -0.28854283	     23.09399968	     -9.38397907	      5.78728436	    -62.62539164	    -23.62107548	      0.00000000	      0.00000000	     17.39743428	    -10.93837738	     -5.72871451	    -62.91551153	    -14.60213476	      0.00000000	      0.00000000	      0.00000000	      0.00000000	      0.00000000
